<?xml version="1.0" encoding="utf-8"?>
<svg viewBox="78.457 148.86 227.409 220.371" xmlns="http://www.w3.org/2000/svg">
  <ellipse style="stroke: rgb(0, 0, 0);" cx="131.638" cy="178.703" rx="11.885" ry="11.365" transform="matrix(1, 0, 0, 1, 0, 7.105427357601002e-15)"/>
  <ellipse style="stroke: rgb(0, 0, 0);" cx="175.45" cy="162.231" rx="11.885" ry="11.365" transform="matrix(1, 0, 0, 1, 0, 7.105427357601002e-15)"/>
  <ellipse style="stroke: rgb(0, 0, 0);" cx="225.896" cy="163.467" rx="11.885" ry="11.365" transform="matrix(1, 0, 0, 1, 0, 7.105427357601002e-15)"/>
  <ellipse style="stroke: rgb(0, 0, 0);" cx="267.806" cy="190.811" rx="11.885" ry="11.365" transform="matrix(1, 0, 0, 1, 0, 7.105427357601002e-15)"/>
  <ellipse style="stroke: rgb(0, 0, 0);" cx="287.306" cy="227.708" rx="11.885" ry="11.365" transform="matrix(1, 0, 0, 1, 0, 7.105427357601002e-15)"/>
  <ellipse style="stroke: rgb(0, 0, 0);" cx="291.27" cy="274.141" rx="11.885" ry="11.365" transform="matrix(1, 0, 0, 1, 0, 7.105427357601002e-15)"/>
  <ellipse style="stroke: rgb(0, 0, 0);" cx="273.789" cy="315.057" rx="11.885" ry="11.365" transform="matrix(1, 0, 0, 1, 0, 7.105427357601002e-15)"/>
  <ellipse style="stroke: rgb(0, 0, 0);" cx="236.308" cy="344.307" rx="11.885" ry="11.365" transform="matrix(1, 0, 0, 1, 0, 7.105427357601002e-15)"/>
  <ellipse style="stroke: rgb(0, 0, 0);" cx="185.854" cy="353.416" rx="11.885" ry="11.365" transform="matrix(1, 0, 0, 1, 0, 7.105427357601002e-15)"/>
  <ellipse style="stroke: rgb(0, 0, 0);" cx="136.186" cy="337.512" rx="11.885" ry="11.365" transform="matrix(1, 0, 0, 1, 0, 7.105427357601002e-15)"/>
  <ellipse style="stroke: rgb(0, 0, 0);" cx="104.655" cy="303.404" rx="11.885" ry="11.365" transform="matrix(1, 0, 0, 1, 0, 7.105427357601002e-15)"/>
  <ellipse style="stroke: rgb(0, 0, 0);" cx="91.996" cy="257.137" rx="11.885" ry="11.365" transform="matrix(1, 0, 0, 1, 0, 7.105427357601002e-15)"/>
  <ellipse style="stroke: rgb(0, 0, 0);" cx="100.976" cy="215.071" rx="11.885" ry="11.365" transform="matrix(1, 0, 0, 1, 0, 7.105427357601002e-15)"/>
</svg>